<?xml version="1.0" encoding="UTF-8" standalone="no"?>
<!-- Created with Inkscape (http://www.inkscape.org/) -->

<svg
   width="108"
   height="108"
   viewBox="0 0 108 108"
   version="1.1"
   id="svg1"
   xml:space="preserve"
   inkscape:version="1.3.2 (091e20e, 2023-11-25, custom)"
   sodipodi:docname="icon.svg"
   xmlns:inkscape="http://www.inkscape.org/namespaces/inkscape"
   xmlns:sodipodi="http://sodipodi.sourceforge.net/DTD/sodipodi-0.dtd"
   xmlns:xlink="http://www.w3.org/1999/xlink"
   xmlns="http://www.w3.org/2000/svg"
   xmlns:svg="http://www.w3.org/2000/svg"><sodipodi:namedview
     id="namedview1"
     pagecolor="#505050"
     bordercolor="#eeeeee"
     borderopacity="1"
     inkscape:showpageshadow="0"
     inkscape:pageopacity="0"
     inkscape:pagecheckerboard="0"
     inkscape:deskcolor="#505050"
     inkscape:document-units="px"
     inkscape:zoom="22.627417"
     inkscape:cx="57.187261"
     inkscape:cy="35.156465"
     inkscape:window-width="2560"
     inkscape:window-height="1377"
     inkscape:window-x="-8"
     inkscape:window-y="-8"
     inkscape:window-maximized="1"
     inkscape:current-layer="layer5" /><defs
     id="defs1"><inkscape:path-effect
       effect="fillet_chamfer"
       id="path-effect3"
       is_visible="true"
       lpeversion="1"
       nodesatellites_param="F,0,0,1,0,0,0,1 @ F,0,0,1,0,0,0,1 @ F,0,0,1,0,0,0,1 @ F,0,0,1,0,0,0,1"
       radius="0"
       unit="px"
       method="auto"
       mode="F"
       chamfer_steps="1"
       flexible="false"
       use_knot_distance="true"
       apply_no_radius="true"
       apply_with_radius="true"
       only_selected="false"
       hide_knots="false" /><inkscape:path-effect
       effect="fillet_chamfer"
       id="path-effect2"
       is_visible="true"
       lpeversion="1"
       nodesatellites_param="F,0,0,1,0,4.9508578,0,1 @ F,0,0,1,0,4.9508578,0,1 @ F,0,0,1,0,4.9508578,0,1 @ F,0,0,1,0,4.9508578,0,1"
       radius="18.711904"
       unit="px"
       method="auto"
       mode="F"
       chamfer_steps="1"
       flexible="false"
       use_knot_distance="true"
       apply_no_radius="true"
       apply_with_radius="true"
       only_selected="false"
       hide_knots="false" /><linearGradient
       id="linearGradient53"
       inkscape:collect="always"><stop
         style="stop-color:#212121;stop-opacity:0.75;"
         offset="0.15506026"
         id="stop52" /><stop
         style="stop-color:#000000;stop-opacity:0;"
         offset="1"
         id="stop53" /></linearGradient><linearGradient
       id="linearGradient51"
       inkscape:collect="always"><stop
         style="stop-color:#000000;stop-opacity:1;"
         offset="0.10126666"
         id="stop50" /><stop
         style="stop-color:#212121;stop-opacity:0.75;"
         offset="1"
         id="stop51" /></linearGradient><linearGradient
       id="linearGradient47"
       inkscape:collect="always"><stop
         style="stop-color:#a50000;stop-opacity:1;"
         offset="0.04218362"
         id="stop46" /><stop
         style="stop-color:#e40000;stop-opacity:1;"
         offset="0.50620347"
         id="stop48" /><stop
         style="stop-color:#6a0000;stop-opacity:1;"
         offset="0.91811419"
         id="stop47" /></linearGradient><linearGradient
       id="linearGradient43"
       inkscape:collect="always"><stop
         style="stop-color:#696969;stop-opacity:1;"
         offset="0.26302728"
         id="stop44" /><stop
         style="stop-color:#dadada;stop-opacity:0;"
         offset="1"
         id="stop45" /></linearGradient><linearGradient
       id="linearGradient42"
       inkscape:collect="always"><stop
         style="stop-color:#292929;stop-opacity:1;"
         offset="0.17617866"
         id="stop42" /><stop
         style="stop-color:#000000;stop-opacity:0;"
         offset="1"
         id="stop43" /></linearGradient><linearGradient
       id="linearGradient15"
       inkscape:collect="always"><stop
         style="stop-color:#ff0000;stop-opacity:1;"
         offset="0.45905706"
         id="stop16" /><stop
         style="stop-color:#3a0000;stop-opacity:1;"
         offset="1"
         id="stop17" /></linearGradient><linearGradient
       id="linearGradient13"
       inkscape:collect="always"><stop
         style="stop-color:#00ff00;stop-opacity:1;"
         offset="0"
         id="stop13" /><stop
         style="stop-color:#00d800;stop-opacity:0.49803922;"
         offset="0.57635629"
         id="stop15" /><stop
         style="stop-color:#003800;stop-opacity:1;"
         offset="1"
         id="stop14" /></linearGradient><linearGradient
       id="swatch3"
       inkscape:swatch="solid"><stop
         style="stop-color:#000000;stop-opacity:1;"
         offset="0"
         id="stop3" /></linearGradient><linearGradient
       id="swatch2"
       inkscape:swatch="solid"><stop
         style="stop-color:#000000;stop-opacity:1;"
         offset="0"
         id="stop2" /></linearGradient><radialGradient
       inkscape:collect="always"
       xlink:href="#linearGradient13"
       id="radialGradient14"
       cx="77.264732"
       cy="168.04414"
       fx="77.264732"
       fy="168.04414"
       r="35"
       gradientUnits="userSpaceOnUse"
       gradientTransform="matrix(1,0.24387358,-0.23692972,0.97152679,32.050393,9.7308989)" /><linearGradient
       inkscape:collect="always"
       xlink:href="#linearGradient47"
       id="linearGradient17"
       x1="203.74127"
       y1="45.413143"
       x2="199.57733"
       y2="89.422455"
       gradientUnits="userSpaceOnUse"
       spreadMethod="pad"
       gradientTransform="translate(0.75594089,10.005252)" /><linearGradient
       inkscape:collect="always"
       xlink:href="#linearGradient47"
       id="linearGradient19"
       x1="60.122051"
       y1="38.863205"
       x2="65.519226"
       y2="90.919937"
       gradientUnits="userSpaceOnUse"
       gradientTransform="translate(0.75594089,10.005252)" /><radialGradient
       inkscape:collect="always"
       xlink:href="#linearGradient15"
       id="radialGradient22"
       cx="137.44318"
       cy="21.623301"
       fx="137.44318"
       fy="21.623301"
       r="7.7104168"
       gradientTransform="matrix(1,0,0,0.98581533,0.75594089,10.311972)"
       gradientUnits="userSpaceOnUse" /><radialGradient
       inkscape:collect="always"
       xlink:href="#linearGradient15"
       id="radialGradient23"
       cx="171.80338"
       cy="10.688558"
       fx="171.80338"
       fy="10.688558"
       r="10.751729"
       gradientTransform="matrix(1,0,0,0.71602319,0.75594089,13.040555)"
       gradientUnits="userSpaceOnUse" /><radialGradient
       inkscape:collect="always"
       xlink:href="#linearGradient15"
       id="radialGradient24"
       cx="114.41789"
       cy="9.8075294"
       fx="114.41789"
       fy="9.8075294"
       r="4.6637855"
       gradientTransform="matrix(1,0,0,1.3432178,0.75594089,6.6391343)"
       gradientUnits="userSpaceOnUse" /><radialGradient
       inkscape:collect="always"
       xlink:href="#linearGradient15"
       id="radialGradient25"
       cx="90.440475"
       cy="15.985165"
       fx="90.440475"
       fy="15.985165"
       r="6.9905887"
       gradientTransform="matrix(1,0,0,1.219241,4.8415268,15.054694)"
       gradientUnits="userSpaceOnUse" /><linearGradient
       inkscape:collect="always"
       xlink:href="#linearGradient51"
       id="linearGradient34"
       x1="95.615807"
       y1="183.58333"
       x2="115.93595"
       y2="118.04236"
       gradientUnits="userSpaceOnUse"
       gradientTransform="matrix(1.5312811,0,0,1.1911133,-49.178249,-26.305929)" /><linearGradient
       inkscape:collect="always"
       xlink:href="#linearGradient51"
       id="linearGradient38"
       gradientUnits="userSpaceOnUse"
       x1="99.560349"
       y1="169.72566"
       x2="117.94781"
       y2="120.9344"
       gradientTransform="matrix(0,-3.2623136,-0.92223305,0,207.50812,493.58006)" /><linearGradient
       inkscape:collect="always"
       xlink:href="#linearGradient51"
       id="linearGradient39"
       gradientUnits="userSpaceOnUse"
       x1="95.615807"
       y1="183.58333"
       x2="115.43299"
       y2="137.5322"
       gradientTransform="matrix(1.4045958,0,0,1.2511755,-51.174235,-59.194032)" /><radialGradient
       inkscape:collect="always"
       xlink:href="#linearGradient42"
       id="radialGradient43"
       cx="155.67403"
       cy="120.4011"
       fx="155.67403"
       fy="120.4011"
       r="21.915066"
       gradientTransform="matrix(1,0,0,1.0014473,0,-0.17425397)"
       gradientUnits="userSpaceOnUse" /><radialGradient
       inkscape:collect="always"
       xlink:href="#linearGradient43"
       id="radialGradient45"
       cx="155.67432"
       cy="120.40071"
       fx="155.67432"
       fy="120.40071"
       r="22.664812"
       gradientTransform="matrix(1,0,0,1.0014249,0,-0.17156175)"
       gradientUnits="userSpaceOnUse" /><linearGradient
       inkscape:collect="always"
       xlink:href="#linearGradient53"
       id="linearGradient48"
       gradientUnits="userSpaceOnUse"
       gradientTransform="matrix(-0.87282827,1.3500009,-1.3784011,-0.51722986,489.83491,76.322114)"
       x1="98.136505"
       y1="197.72614"
       x2="115.40806"
       y2="129.21329" /><linearGradient
       inkscape:collect="always"
       xlink:href="#linearGradient53"
       id="linearGradient49"
       gradientUnits="userSpaceOnUse"
       gradientTransform="matrix(-0.87282827,1.3500009,-1.3784011,-0.51722986,471.25939,78.786436)"
       x1="96.539467"
       y1="196.99579"
       x2="114.69238"
       y2="128.89243" /><linearGradient
       inkscape:collect="always"
       xlink:href="#linearGradient53"
       id="linearGradient50"
       gradientUnits="userSpaceOnUse"
       gradientTransform="matrix(-0.87282827,1.3500009,-1.3784011,-0.51722986,445.78078,76.486351)"
       x1="95.615807"
       y1="183.58333"
       x2="115.93595"
       y2="118.04236" /></defs><g
     id="layer7"
     inkscape:label="main"><rect
       style="display:none;fill:#175a81;fill-opacity:0.5;stroke:#0a0a0a;stroke-width:0;stroke-linecap:square;stroke-dasharray:none;stroke-opacity:0;paint-order:normal"
       id="rect3"
       width="64"
       height="64"
       x="22"
       y="22"
       ry="0"
       rx="11.583312" /><g
       id="layer4"
       inkscape:label="Smash"
       style="display:inline"
       transform="matrix(0.27759939,0,0,0.27990615,19.14017,18.361674)"><path
         sodipodi:type="star"
         style="fill:url(#radialGradient43);fill-opacity:1;fill-rule:nonzero;stroke:url(#radialGradient45);stroke-width:1.5;stroke-linecap:square;stroke-dasharray:none;paint-order:fill markers stroke"
         id="path41"
         inkscape:flatsided="false"
         sodipodi:sides="11"
         sodipodi:cx="155.41859"
         sodipodi:cy="120.20935"
         sodipodi:r1="22.211695"
         sodipodi:r2="11.563344"
         sodipodi:arg1="0.51020891"
         sodipodi:arg2="0.82546171"
         inkscape:rounded="0.1"
         inkscape:randomized="0"
         d="m 174.80146,131.05664 c -0.60537,1.01022 -10.699,-3.1739 -11.5404,-2.34984 -0.81495,0.79816 3.62122,10.60091 2.59895,11.10704 -1.05544,0.52257 -7.28463,-8.45438 -8.43798,-8.21602 -1.1171,0.23086 -2.68492,10.87583 -3.81855,10.74894 -1.17041,-0.13101 -1.55744,-11.05065 -2.65656,-11.47368 -1.06458,-0.40974 -8.13861,7.69775 -9.02368,6.97812 -0.91378,-0.74298 4.66423,-10.13841 3.9683,-11.08852 -0.67406,-0.92025 -11.00836,2.07569 -11.36386,0.9918 -0.36704,-1.11907 9.40504,-6.00731 9.33325,-7.18284 -0.0695,-1.13858 -10.38303,-4.20538 -10.0961,-5.30941 0.29624,-1.13985 11.15982,0.0311 11.73497,-0.99665 0.55707,-0.99543 -6.46116,-9.15128 -5.6229,-9.92492 0.86547,-0.79874 9.37143,6.0596 10.41091,5.50597 1.00681,-0.53624 -0.48791,-11.191713 0.63554,-11.389341 1.15991,-0.204041 4.60768,10.164241 5.78147,10.260471 1.13689,0.0932 5.64023,-9.67885 6.69219,-9.237719 1.08609,0.455445 -1.61897,11.041799 -0.68356,11.757359 0.90602,0.69306 9.97766,-5.09303 10.62412,-4.1532 0.66745,0.97033 -7.33161,8.41367 -6.93155,9.52136 0.3875,1.07288 11.14724,1.1098 11.18297,2.24994 0.0369,1.17715 -10.71652,3.11427 -10.97883,4.2624 -0.25406,1.11206 8.77765,6.96027 8.1913,7.93874 z"
         inkscape:transform-center-x="7.2775259"
         inkscape:transform-center-y="2.1833878"
         transform="matrix(4.0155113,-0.89735811,1.0268868,2.6555774,-616.06607,-76.335524)" /></g><g
       id="layer2"
       inkscape:label="Ball"
       style="display:inline"
       transform="matrix(0.27759939,0,0,0.27990615,19.14017,18.361674)"><circle
         style="fill:url(#radialGradient14);fill-opacity:1;stroke:none;stroke-width:1.5;stroke-linecap:square;stroke-dasharray:none;stroke-opacity:1;paint-order:fill markers stroke"
         id="path13"
         cx="58.119709"
         cy="206.5925"
         inkscape:label="ball"
         r="35" /></g><g
       id="layer3"
       inkscape:label="BallSpeed"
       transform="matrix(0.27759939,0,0,0.27990615,19.14017,18.361674)"><path
         style="mix-blend-mode:normal;fill:url(#linearGradient34);fill-rule:nonzero;stroke:none;stroke-width:2.02579;stroke-linecap:square;stroke-dasharray:none;stroke-opacity:1;paint-order:fill markers stroke"
         id="path33"
         d="m 97.746301,200.00346 c 14.051469,-32.26459 34.107359,-89.65727 34.107359,-89.65727 l -1.35719,-7.49979 c 0,0 -25.56973,54.1539 -35.752266,78.82799 z"
         sodipodi:nodetypes="ccccc" /><path
         style="mix-blend-mode:normal;fill:url(#linearGradient48);fill-opacity:1;fill-rule:nonzero;stroke:none;stroke-width:2.28093;stroke-linecap:square;stroke-dasharray:none;stroke-opacity:1;paint-order:fill markers stroke"
         id="path33-98"
         d="m 131.92448,110.4255 c 31.72911,24.79817 79.18102,56.0155 79.18102,56.0155 l 0.9746,-1.52497 c 0,0 -55.73361,-42.02304 -81.6842,-61.89244 z"
         sodipodi:nodetypes="ccccc" /><path
         style="mix-blend-mode:normal;fill:url(#linearGradient49);fill-rule:nonzero;stroke:none;stroke-width:2.28093;stroke-linecap:square;stroke-dasharray:none;stroke-opacity:1;paint-order:fill markers stroke"
         id="path33-98-3"
         d="m 115.30503,110.26691 c 34.92995,25.95403 77.84733,57.66037 77.84733,57.66037 l 1.77482,-0.90258 c 0,0 -56.66718,-45.53508 -81.373,-65.31556 z"
         sodipodi:nodetypes="ccccc" /><path
         style="mix-blend-mode:normal;fill:url(#linearGradient50);fill-opacity:1;fill-rule:nonzero;stroke:none;stroke-width:2.28093;stroke-linecap:square;stroke-dasharray:none;stroke-opacity:1;paint-order:fill markers stroke"
         id="path33-98-0"
         d="m 98.217302,112.80468 c 33.418438,24.88708 84.110638,61.07348 84.110638,61.07348 l 1.38865,-1.94841 c 0,0 -64.78997,-49.41057 -87.539729,-69.10214 z"
         sodipodi:nodetypes="ccccc" /><path
         style="mix-blend-mode:normal;fill:url(#linearGradient39);fill-rule:nonzero;stroke:none;stroke-width:1.9885;stroke-linecap:square;stroke-dasharray:none;stroke-opacity:1;paint-order:fill markers stroke"
         id="path33-1"
         d="m 83.418402,174.90861 c 19.975478,-37.51424 31.917858,-64.58368 31.917858,-64.58368 l -1.89709,-8.74134 c 0,0 -23.611,39.32342 -40.545565,68.70282 z"
         sodipodi:nodetypes="ccccc" /><path
         style="mix-blend-mode:normal;fill:url(#linearGradient38);fill-opacity:1;fill-rule:nonzero;stroke:none;stroke-width:2.60179;stroke-linecap:square;stroke-dasharray:none;stroke-opacity:1;paint-order:fill markers stroke"
         id="path33-9"
         d="m 39.298517,172.26687 c 18.118227,-23.33151 45.182689,-54.85162 56.804658,-69.61068 l 2.08912,10.07674 c -7.47494,9.86883 -37.653615,48.98461 -41.674815,53.94645 z"
         sodipodi:nodetypes="ccccc" /></g><g
       inkscape:label="Block"
       id="layer1"
       style="display:inline"
       transform="matrix(0.27759939,0,0,0.27990615,19.14017,18.361674)"><path
         style="fill:url(#linearGradient19);stroke:#000000;stroke-width:3.5;stroke-dasharray:none;stroke-opacity:1"
         d="m 112.86755,47.444 -100.677145,9.183487 3.778573,48.011323 107.050292,-8.425044 -3.00992,-7.830226 -9.06265,-3.928383 7.5561,-8.169087 -7.87834,-6.518307 10.24663,-10.896617 -11.90134,-1.941952 z"
         id="path7"
         sodipodi:nodetypes="ccccccccccc" /><path
         style="fill:url(#linearGradient17);fill-opacity:1;stroke:#000000;stroke-width:3.5;stroke-linecap:square;stroke-dasharray:none;stroke-opacity:1;paint-order:fill markers stroke"
         d="m 151.66846,49.153684 3.59544,6.768932 -4.25823,4.970816 -6.98195,3.169964 3.92695,8.384705 13.15735,3.732505 -12.03389,6.896757 -10.3694,2.84484 5.80454,10.923606 90.67107,7.135971 3.78118,-48.04447 z"
         id="path8"
         sodipodi:nodetypes="cccccccccccc" /><path
         style="fill:url(#radialGradient24);stroke:#000000;stroke-width:1.5;stroke-linecap:square;stroke-dasharray:none;stroke-opacity:1;paint-order:fill markers stroke"
         d="m 111.36277,21.208194 5.33473,3.734315 2.31172,-5.15691 -2.40063,-4.890173 -5.15691,5.957119 z"
         id="path9" /><path
         style="fill:url(#radialGradient22);stroke:#000000;stroke-width:1.5;stroke-linecap:square;stroke-dasharray:none;stroke-opacity:1;paint-order:fill markers stroke"
         d="m 132.07932,37.656959 5.95712,-12.358802 6.57951,6.490594 z"
         id="path10" /><path
         style="fill:url(#radialGradient23);stroke:#000000;stroke-width:1.5;stroke-linecap:square;stroke-dasharray:none;stroke-opacity:1;paint-order:fill markers stroke"
         d="m 161.95383,16.762583 14.75943,-2.934104 5.60148,8.35775 -5.7793,4.890173 -2.48954,-8.446662 z"
         id="path11" /><path
         style="fill:url(#radialGradient25);stroke:#000000;stroke-width:1.5;stroke-linecap:square;stroke-dasharray:none;stroke-opacity:1;paint-order:fill markers stroke"
         d="m 100.24436,35.185886 -11.202943,-7.735364 3e-6,15.292905 3.111928,-6.490594 z"
         id="path12" /></g><g
       inkscape:groupmode="layer"
       id="layer5"
       inkscape:label="Risse"><path
         style="display:inline;fill:#000000;fill-opacity:1;stroke:#0a0a0a;stroke-width:0;stroke-linecap:square;stroke-opacity:0"
         id="path4"
         d="m 42.505553,33.624165 0.730117,0.166377 -2.095143,2.152384 0.06802,0.362095 2.671078,-2.368282 4.282912,0.614726 -0.186669,1.487051 0.203956,0.0183 0.423537,-1.354024 1.095412,0.114775 -0.411057,-1.039879 -6.671141,-0.509687 z"
         sodipodi:nodetypes="ccccccccccccc" /><path
         style="display:inline;fill:#000000;fill-opacity:1;stroke:#0a0a0a;stroke-width:0;stroke-linecap:square;stroke-opacity:0"
         id="path4-6"
         d="m 47.78123,44.36319 0.155376,-0.294924 -1.597359,-0.372851 -0.137285,-0.188154 1.871921,0.301139 1.139051,-1.734203 0.621113,0.194734 -1.862141,2.226277 z"
         sodipodi:nodetypes="ccccccccc" /><path
         style="display:inline;fill:#000000;fill-opacity:1;stroke:#0a0a0a;stroke-width:0;stroke-linecap:square;stroke-opacity:0"
         id="path4-6-2"
         d="m 62.893991,44.714545 -0.749427,-1.126596 1.03301,-1.249077 -0.219146,-0.1436 -0.951141,1.132811 -1.139051,-1.734203 -0.621113,0.194734 2.441341,3.028247 z"
         sodipodi:nodetypes="ccccccccc" /><path
         style="display:inline;fill:#000000;fill-opacity:1;stroke:#0a0a0a;stroke-width:0;stroke-linecap:square;stroke-opacity:0"
         id="path4-6-2-9"
         d="m 73.505484,35.337258 -0.754356,-0.878416 -1.549181,0.372857 -0.04888,-0.201288 1.410444,-0.348474 -1.166772,-1.341649 0.417463,-0.390549 1.864416,2.669614 z"
         sodipodi:nodetypes="ccccccccc" /><path
         style="display:inline;fill:#000000;fill-opacity:1;stroke:#0a0a0a;stroke-width:0;stroke-linecap:square;stroke-opacity:0"
         id="path4-6-2-9-1"
         d="m 70.186757,40.848165 -3.484732,-0.584376 0.876653,1.538518 -0.129159,0.471249 2.417716,0.768125 0.03308,0.149687 -2.505986,-0.68625 -0.332283,1.182187 -0.28327,0.02781 0.413052,-1.865002 -0.929452,-1.668713 -1.870369,-0.312507 0.417463,-0.390549 5.329893,1.010386 z"
         sodipodi:nodetypes="ccccccccccccccc" /><path
         style="display:inline;fill:#000000;fill-opacity:1;stroke:#0a0a0a;stroke-width:0;stroke-linecap:square;stroke-opacity:0"
         id="path4-6-2-6"
         d="m 40.976442,34.218392 -0.559525,-0.597085 0.77125,-0.661999 -0.163616,-0.07611 -0.710125,0.600379 -0.850421,-0.919111 -0.463725,0.103207 1.822715,1.604943 z"
         sodipodi:nodetypes="ccccccccc" /><path
         style="display:inline;fill:#000000;fill-opacity:1;stroke:#0a0a0a;stroke-width:0;stroke-linecap:square;stroke-opacity:0"
         id="path4-6-2-8"
         d="m 67.733853,34.39998 -0.827302,1.214185 -0.499589,-0.248376 4.11e-4,0.07975 0.414885,0.276685 -0.772615,1.096998 -1.766029,-1.009741 0.931497,-2.172426 -0.240314,0.01293 -1.11463,2.014548 -0.972397,-0.493806 -0.264124,0.01958 2.859403,2.102249 -2.998667,1.542773 1.087515,0.339857 2.768927,-1.586526 0.237073,-0.260834 0.800986,1.286171 0.257513,-0.115592 -0.841483,-1.615573 1.079738,-1.973626 1.380937,0.426391 -0.61825,0.744729 -0.05017,0.490839 1.123085,-1.083398 4.653476,1.542839 -0.04176,-0.22732 -6.26589,-2.276358 0.106558,-0.912663 -0.214395,-0.0081 z"
         sodipodi:nodetypes="ccccccccccccccccccccccccccccccc" /><path
         style="display:inline;fill:#000000;fill-opacity:1;stroke:#0a0a0a;stroke-width:0;stroke-linecap:square;stroke-opacity:0"
         id="path4-0"
         d="m 41.13048,39.396102 2.224894,-0.902301 2.098608,-0.05168 0.417874,-2.876984 0.468521,-0.005 -0.345321,2.78834 3.473725,-0.74478 0.34343,0.725353 -3.941369,0.539604 -0.700806,0.002 -0.969899,1.777496 0.890168,0.300666 -0.148188,0.143146 -0.857645,-0.312293 -0.717327,1.504459 -0.175202,-0.052 1.277288,-3.359455 -0.882433,-0.0065 -2.4119,0.707626 z"
         sodipodi:nodetypes="cccccccccccccccccccc" /></g></g></svg>
