{
	"asset":{
		"generator":"Khronos glTF Blender I/O v4.1.63",
		"version":"2.0"
	},
	"scene":0,
	"scenes":[
		{
			"name":"Scene",
			"nodes":[
				0
			]
		}
	],
	"nodes":[
		{
			"mesh":0,
			"name":"Cylinder"
		}
	],
	"materials":[
		{
			"doubleSided":true,
			"name":"Background",
			"pbrMetallicRoughness":{
				"metallicFactor":0,
				"roughnessFactor":0.5
			}
		}
	],
	"meshes":[
		{
			"name":"Cylinder",
			"primitives":[
				{
					"attributes":{
						"POSITION":0,
						"NORMAL":1,
						"TEXCOORD_0":2
					},
					"indices":3,
					"material":0
				}
			]
		}
	],
	"accessors":[
		{
			"bufferView":0,
			"componentType":5126,
			"count":382,
			"max":[
				0.616553544998169,
				3.3690948486328125,
				0.616553544998169
			],
			"min":[
				-0.616553544998169,
				-0.08748984336853027,
				-0.616553544998169
			],
			"type":"VEC3"
		},
		{
			"bufferView":1,
			"componentType":5126,
			"count":382,
			"type":"VEC3"
		},
		{
			"bufferView":2,
			"componentType":5126,
			"count":382,
			"type":"VEC2"
		},
		{
			"bufferView":3,
			"componentType":5123,
			"count":576,
			"type":"SCALAR"
		}
	],
	"bufferViews":[
		{
			"buffer":0,
			"byteLength":4584,
			"byteOffset":0,
			"target":34962
		},
		{
			"buffer":0,
			"byteLength":4584,
			"byteOffset":4584,
			"target":34962
		},
		{
			"buffer":0,
			"byteLength":3056,
			"byteOffset":9168,
			"target":34962
		},
		{
			"buffer":0,
			"byteLength":1152,
			"byteOffset":12224,
			"target":34963
		}
	],
	"buffers":[
		{
			"byteLength":13376,
			"uri":"bomb.bin"
		}
	]
}
