{
	"asset":{
		"generator":"Khronos glTF Blender I/O v4.1.63",
		"version":"2.0"
	},
	"scene":0,
	"scenes":[
		{
			"name":"Scene",
			"nodes":[
				0,
				1,
				2,
				3,
				4
			]
		}
	],
	"nodes":[
		{
			"mesh":0,
			"name":"Cube",
			"scale":[
				2.48777174949646,
				1,
				5.400000095367432
			],
			"translation":[
				0,
				2,
				0
			]
		},
		{
			"mesh":1,
			"name":"wheel",
			"rotation":[
				0,
				0,
				-0.7071066498756409,
				0.70710688829422
			],
			"scale":[
				1,
				1.2000000476837158,
				1
			],
			"translation":[
				-2.299999952316284,
				1,
				-3
			]
		},
		{
			"mesh":2,
			"name":"wheel.001",
			"rotation":[
				0,
				0,
				-0.7071066498756409,
				0.70710688829422
			],
			"scale":[
				1,
				1.2000000476837158,
				1
			],
			"translation":[
				2.299999952316284,
				1,
				-3
			]
		},
		{
			"mesh":3,
			"name":"wheel.002",
			"rotation":[
				0,
				0,
				-0.7071066498756409,
				0.70710688829422
			],
			"scale":[
				1,
				1.2000000476837158,
				1
			],
			"translation":[
				2.299999952316284,
				1,
				3
			]
		},
		{
			"mesh":4,
			"name":"wheel.003",
			"rotation":[
				0,
				0,
				-0.7071066498756409,
				0.70710688829422
			],
			"scale":[
				1,
				1.2000000476837158,
				1
			],
			"translation":[
				-2.299999952316284,
				1,
				3
			]
		}
	],
	"materials":[
		{
			"doubleSided":true,
			"name":"BackgroundCar",
			"pbrMetallicRoughness":{
				"metallicFactor":0,
				"roughnessFactor":0.5
			}
		},
		{
			"doubleSided":true,
			"name":"BackgroundWhells",
			"pbrMetallicRoughness":{
				"metallicFactor":0,
				"roughnessFactor":0.5
			}
		}
	],
	"meshes":[
		{
			"name":"Cube.001",
			"primitives":[
				{
					"attributes":{
						"POSITION":0,
						"NORMAL":1,
						"TEXCOORD_0":2
					},
					"indices":3,
					"material":0
				}
			]
		},
		{
			"name":"Cylinder",
			"primitives":[
				{
					"attributes":{
						"POSITION":4,
						"NORMAL":5,
						"TEXCOORD_0":6
					},
					"indices":7
				}
			]
		},
		{
			"name":"Cylinder.001",
			"primitives":[
				{
					"attributes":{
						"POSITION":8,
						"NORMAL":9,
						"TEXCOORD_0":10
					},
					"indices":7
				}
			]
		},
		{
			"name":"Cylinder.002",
			"primitives":[
				{
					"attributes":{
						"POSITION":11,
						"NORMAL":12,
						"TEXCOORD_0":13
					},
					"indices":7
				}
			]
		},
		{
			"name":"Cylinder.003",
			"primitives":[
				{
					"attributes":{
						"POSITION":14,
						"NORMAL":15,
						"TEXCOORD_0":16
					},
					"indices":7,
					"material":1
				}
			]
		}
	],
	"accessors":[
		{
			"bufferView":0,
			"componentType":5126,
			"count":66,
			"max":[
				1,
				3,
				1
			],
			"min":[
				-1,
				-1,
				-1
			],
			"type":"VEC3"
		},
		{
			"bufferView":1,
			"componentType":5126,
			"count":66,
			"type":"VEC3"
		},
		{
			"bufferView":2,
			"componentType":5126,
			"count":66,
			"type":"VEC2"
		},
		{
			"bufferView":3,
			"componentType":5123,
			"count":132,
			"type":"SCALAR"
		},
		{
			"bufferView":4,
			"componentType":5126,
			"count":48,
			"max":[
				1,
				0.25,
				1
			],
			"min":[
				-1,
				-0.25,
				-1
			],
			"type":"VEC3"
		},
		{
			"bufferView":5,
			"componentType":5126,
			"count":48,
			"type":"VEC3"
		},
		{
			"bufferView":6,
			"componentType":5126,
			"count":48,
			"type":"VEC2"
		},
		{
			"bufferView":7,
			"componentType":5123,
			"count":84,
			"type":"SCALAR"
		},
		{
			"bufferView":8,
			"componentType":5126,
			"count":48,
			"max":[
				1,
				0.25,
				1
			],
			"min":[
				-1,
				-0.25,
				-1
			],
			"type":"VEC3"
		},
		{
			"bufferView":9,
			"componentType":5126,
			"count":48,
			"type":"VEC3"
		},
		{
			"bufferView":10,
			"componentType":5126,
			"count":48,
			"type":"VEC2"
		},
		{
			"bufferView":11,
			"componentType":5126,
			"count":48,
			"max":[
				1,
				0.25,
				1
			],
			"min":[
				-1,
				-0.25,
				-1
			],
			"type":"VEC3"
		},
		{
			"bufferView":12,
			"componentType":5126,
			"count":48,
			"type":"VEC3"
		},
		{
			"bufferView":13,
			"componentType":5126,
			"count":48,
			"type":"VEC2"
		},
		{
			"bufferView":14,
			"componentType":5126,
			"count":48,
			"max":[
				1,
				0.25,
				1
			],
			"min":[
				-1,
				-0.25,
				-1
			],
			"type":"VEC3"
		},
		{
			"bufferView":15,
			"componentType":5126,
			"count":48,
			"type":"VEC3"
		},
		{
			"bufferView":16,
			"componentType":5126,
			"count":48,
			"type":"VEC2"
		}
	],
	"bufferViews":[
		{
			"buffer":0,
			"byteLength":792,
			"byteOffset":0,
			"target":34962
		},
		{
			"buffer":0,
			"byteLength":792,
			"byteOffset":792,
			"target":34962
		},
		{
			"buffer":0,
			"byteLength":528,
			"byteOffset":1584,
			"target":34962
		},
		{
			"buffer":0,
			"byteLength":264,
			"byteOffset":2112,
			"target":34963
		},
		{
			"buffer":0,
			"byteLength":576,
			"byteOffset":2376,
			"target":34962
		},
		{
			"buffer":0,
			"byteLength":576,
			"byteOffset":2952,
			"target":34962
		},
		{
			"buffer":0,
			"byteLength":384,
			"byteOffset":3528,
			"target":34962
		},
		{
			"buffer":0,
			"byteLength":168,
			"byteOffset":3912,
			"target":34963
		},
		{
			"buffer":0,
			"byteLength":576,
			"byteOffset":4080,
			"target":34962
		},
		{
			"buffer":0,
			"byteLength":576,
			"byteOffset":4656,
			"target":34962
		},
		{
			"buffer":0,
			"byteLength":384,
			"byteOffset":5232,
			"target":34962
		},
		{
			"buffer":0,
			"byteLength":576,
			"byteOffset":5616,
			"target":34962
		},
		{
			"buffer":0,
			"byteLength":576,
			"byteOffset":6192,
			"target":34962
		},
		{
			"buffer":0,
			"byteLength":384,
			"byteOffset":6768,
			"target":34962
		},
		{
			"buffer":0,
			"byteLength":576,
			"byteOffset":7152,
			"target":34962
		},
		{
			"buffer":0,
			"byteLength":576,
			"byteOffset":7728,
			"target":34962
		},
		{
			"buffer":0,
			"byteLength":384,
			"byteOffset":8304,
			"target":34962
		}
	],
	"buffers":[
		{
			"byteLength":8688,
			"uri":"car.bin"
		}
	]
}
