{
	"asset":{
		"generator":"Khronos glTF Blender I/O v4.5.47",
		"version":"2.0"
	},
	"scene":0,
	"scenes":[
		{
			"name":"Scene",
			"nodes":[
				0
			]
		}
	],
	"nodes":[
		{
			"mesh":0,
			"name":"Wall"
		}
	],
	"meshes":[
		{
			"name":"Cube",
			"primitives":[
				{
					"attributes":{
						"POSITION":0,
						"NORMAL":1,
						"TEXCOORD_0":2
					},
					"indices":3
				},
				{
					"attributes":{
						"POSITION":4,
						"NORMAL":5,
						"TEXCOORD_0":6
					},
					"indices":7
				}
			]
		}
	],
	"accessors":[
		{
			"bufferView":0,
			"componentType":5126,
			"count":372,
			"max":[
				0,
				8,
				20
			],
			"min":[
				-1,
				0,
				-20
			],
			"type":"VEC3"
		},
		{
			"bufferView":1,
			"componentType":5126,
			"count":372,
			"type":"VEC3"
		},
		{
			"bufferView":2,
			"componentType":5126,
			"count":372,
			"type":"VEC2"
		},
		{
			"bufferView":3,
			"componentType":5123,
			"count":558,
			"type":"SCALAR"
		},
		{
			"bufferView":4,
			"componentType":5126,
			"count":46,
			"max":[
				0,
				7,
				20
			],
			"min":[
				0,
				0,
				-20
			],
			"type":"VEC3"
		},
		{
			"bufferView":5,
			"componentType":5126,
			"count":46,
			"type":"VEC3"
		},
		{
			"bufferView":6,
			"componentType":5126,
			"count":46,
			"type":"VEC2"
		},
		{
			"bufferView":7,
			"componentType":5123,
			"count":132,
			"type":"SCALAR"
		}
	],
	"bufferViews":[
		{
			"buffer":0,
			"byteLength":4464,
			"byteOffset":0,
			"target":34962
		},
		{
			"buffer":0,
			"byteLength":4464,
			"byteOffset":4464,
			"target":34962
		},
		{
			"buffer":0,
			"byteLength":2976,
			"byteOffset":8928,
			"target":34962
		},
		{
			"buffer":0,
			"byteLength":1116,
			"byteOffset":11904,
			"target":34963
		},
		{
			"buffer":0,
			"byteLength":552,
			"byteOffset":13020,
			"target":34962
		},
		{
			"buffer":0,
			"byteLength":552,
			"byteOffset":13572,
			"target":34962
		},
		{
			"buffer":0,
			"byteLength":368,
			"byteOffset":14124,
			"target":34962
		},
		{
			"buffer":0,
			"byteLength":264,
			"byteOffset":14492,
			"target":34963
		}
	],
	"buffers":[
		{
			"byteLength":14756,
			"uri":"castleWall.bin"
		}
	]
}
