{
	"asset":{
		"generator":"Khronos glTF Blender I/O v4.5.47",
		"version":"2.0"
	},
	"scene":0,
	"scenes":[
		{
			"name":"Scene",
			"nodes":[
				0
			]
		}
	],
	"nodes":[
		{
			"mesh":0,
			"name":"Cube"
		}
	],
	"materials":[
		{
			"doubleSided":true,
			"name":"Background",
			"pbrMetallicRoughness":{
				"metallicFactor":0,
				"roughnessFactor":0.5
			}
		}
	],
	"meshes":[
		{
			"name":"Cube",
			"primitives":[
				{
					"attributes":{
						"POSITION":0,
						"NORMAL":1,
						"TEXCOORD_0":2
					},
					"indices":3,
					"material":0
				}
			]
		}
	],
	"accessors":[
		{
			"bufferView":0,
			"componentType":5126,
			"count":101,
			"max":[
				3.2393925189971924,
				3.477414608001709,
				2
			],
			"min":[
				-3.2728097438812256,
				0,
				-2
			],
			"type":"VEC3"
		},
		{
			"bufferView":1,
			"componentType":5126,
			"count":101,
			"type":"VEC3"
		},
		{
			"bufferView":2,
			"componentType":5126,
			"count":101,
			"type":"VEC2"
		},
		{
			"bufferView":3,
			"componentType":5123,
			"count":168,
			"type":"SCALAR"
		}
	],
	"bufferViews":[
		{
			"buffer":0,
			"byteLength":1212,
			"byteOffset":0,
			"target":34962
		},
		{
			"buffer":0,
			"byteLength":1212,
			"byteOffset":1212,
			"target":34962
		},
		{
			"buffer":0,
			"byteLength":808,
			"byteOffset":2424,
			"target":34962
		},
		{
			"buffer":0,
			"byteLength":336,
			"byteOffset":3232,
			"target":34963
		}
	],
	"buffers":[
		{
			"byteLength":3568,
			"uri":"tent.bin"
		}
	]
}
