{
	"asset":{
		"generator":"Khronos glTF Blender I/O v4.5.47",
		"version":"2.0"
	},
	"scene":0,
	"scenes":[
		{
			"name":"Scene",
			"nodes":[
				0
			]
		}
	],
	"nodes":[
		{
			"mesh":0,
			"name":"UFO"
		}
	],
	"meshes":[
		{
			"name":"Torus",
			"primitives":[
				{
					"attributes":{
						"POSITION":0,
						"NORMAL":1,
						"TEXCOORD_0":2
					},
					"indices":3
				},
				{
					"attributes":{
						"POSITION":4,
						"NORMAL":5,
						"TEXCOORD_0":6
					},
					"indices":7
				}
			]
		}
	],
	"accessors":[
		{
			"bufferView":0,
			"componentType":5126,
			"count":1088,
			"max":[
				1.25,
				0.7111969590187073,
				1.25
			],
			"min":[
				-1.25,
				-0.18761387467384338,
				-1.25
			],
			"type":"VEC3"
		},
		{
			"bufferView":1,
			"componentType":5126,
			"count":1088,
			"type":"VEC3"
		},
		{
			"bufferView":2,
			"componentType":5126,
			"count":1088,
			"type":"VEC2"
		},
		{
			"bufferView":3,
			"componentType":5123,
			"count":2010,
			"type":"SCALAR"
		},
		{
			"bufferView":4,
			"componentType":5126,
			"count":128,
			"max":[
				1.2422521114349365,
				0.3254963457584381,
				1.2422521114349365
			],
			"min":[
				-1.2422521114349365,
				-0.01666666939854622,
				-1.2422521114349365
			],
			"type":"VEC3"
		},
		{
			"bufferView":5,
			"componentType":5126,
			"count":128,
			"type":"VEC3"
		},
		{
			"bufferView":6,
			"componentType":5126,
			"count":128,
			"type":"VEC2"
		},
		{
			"bufferView":7,
			"componentType":5123,
			"count":192,
			"type":"SCALAR"
		}
	],
	"bufferViews":[
		{
			"buffer":0,
			"byteLength":13056,
			"byteOffset":0,
			"target":34962
		},
		{
			"buffer":0,
			"byteLength":13056,
			"byteOffset":13056,
			"target":34962
		},
		{
			"buffer":0,
			"byteLength":8704,
			"byteOffset":26112,
			"target":34962
		},
		{
			"buffer":0,
			"byteLength":4020,
			"byteOffset":34816,
			"target":34963
		},
		{
			"buffer":0,
			"byteLength":1536,
			"byteOffset":38836,
			"target":34962
		},
		{
			"buffer":0,
			"byteLength":1536,
			"byteOffset":40372,
			"target":34962
		},
		{
			"buffer":0,
			"byteLength":1024,
			"byteOffset":41908,
			"target":34962
		},
		{
			"buffer":0,
			"byteLength":384,
			"byteOffset":42932,
			"target":34963
		}
	],
	"buffers":[
		{
			"byteLength":43316,
			"uri":"UFO2.bin"
		}
	]
}
